:SAMPLES-PER-SECOND 30
:FULLY-SPECIFIED
:DEGREES
253
root  -3.45299 40.8942 1.06426 179.108 -58.2633 -176.406
RightUpLeg  -4.09799 2.60746 0.537019
RightLeg  -3.09648 6.85036 -0.936604
RightFoot  5.26454 -0.688044 4.95913
RightToes  -3.1126e-008 1.75238e-005 3.56266e-009
Spine  10.2868 -8.84086 -11.9496
Spine1  -13.0071 -10.3733 16.397
HEad  -4.17334 -16.2076 -0.218625
LeftShoulder1  0.800682 0.14969 -17.165
LeftArm  -28.1382 -39.9254 -48.1954
LeftForeArm  51.1987 -74.2883 -36.0896
LeftHand  -0.552702 -4.92976 6.51826
RightShoulder  0.602676 -0.949271 17.1155
RightArm  -14.8954 -21.8755 39.4296
RightForeArm  100.576 78.837 109.805
RightHand  -0.0643563 8.41602 -0.921988
LeftUpLeg  4.6834 2.51001 1.7909
LeftLeg  -5.16556 47.2718 -3.94779
LeftFoot  -0.659321 0.304535 -3.24062
LeftToes  4.78049e-008 1.46235e-008 1.34219e-009
254
root  -3.3855 40.9152 0.967344 178.684 -61.0962 -176.179
RightUpLeg  -3.38183 2.25242 0.440091
RightLeg  -3.51413 4.46893 -0.651914
RightFoot  5.27472 -0.631219 4.56691
RightToes  -3.1126e-008 1.75238e-005 3.56266e-009
Spine  10.4548 -8.80808 -11.6064
Spine1  -12.9583 -10.3104 15.6897
HEad  -3.51657 -16.005 -0.361949
LeftShoulder1  0.689709 0.533081 -16.4815
LeftArm  -27.8603 -39.692 -48.7533
LeftForeArm  51.0003 -74.2948 -36.1656
LeftHand  -0.572918 -4.64007 6.92339
RightShoulder  0.604213 -0.967937 17.3738
RightArm  -14.687 -21.5711 39.7648
RightForeArm  100.636 78.884 109.417
RightHand  -0.0934581 7.9449 -1.18453
LeftUpLeg  4.5391 2.39036 2.07014
LeftLeg  -4.91151 44.5973 -3.4748
LeftFoot  -0.401152 0.293735 -3.04255
LeftToes  4.78049e-008 1.46235e-008 1.34219e-009
255
root  -3.29889 40.9297 0.883194 178.71 -63.7622 -176.318
RightUpLeg  -3.16729 1.9412 0.210376
RightLeg  -3.31103 2.32974 -0.445281
RightFoot  5.01452 -0.578138 4.25942
RightToes  -3.1126e-008 1.75238e-005 3.56266e-009
Spine  10.6733 -8.37846 -11.2082
Spine1  -13.4457 -9.75993 14.9494
HEad  -2.89751 -15.9332 -0.326657
LeftShoulder1  0.720296 0.387479 -16.35
LeftArm  -27.6057 -39.3454 -48.8273
LeftForeArm  51.4572 -74.3966 -36.4082
LeftHand  -0.564104 -5.11562 6.53438
RightShoulder  0.589222 -1.03214 17.3867
RightArm  -14.593 -21.6649 39.6957
RightForeArm  101.165 78.7245 110.991
RightHand  -0.19543 7.92622 -2.07365
LeftUpLeg  4.25919 2.26752 2.18999
LeftLeg  -4.79121 42.1019 -3.26319
LeftFoot  -0.19603 0.293321 -2.99448
LeftToes  4.78049e-008 1.46235e-008 1.34219e-009
256
root  -3.21871 40.9452 0.797221 178.845 -66.368 -176.541
RightUpLeg  -3.03962 1.58686 -0.0414069
RightLeg  -3.01806 0.259517 -0.23025
RightFoot  4.77977 -0.523564 3.92629
RightToes  -3.1126e-008 1.75238e-005 3.56266e-009
Spine  10.1139 -7.98147 -11.0565
Spine1  -12.6825 -9.39823 14.4295
HEad  -2.97353 -15.5449 -0.831081
LeftShoulder1  0.669678 0.574138 -16.0631
LeftArm  -28.0802 -39.4643 -48.761
LeftForeArm  52.253 -74.6316 -37.0576
LeftHand  -0.573918 -4.81014 6.82478
RightShoulder  0.639812 -0.840967 17.5823
RightArm  -14.9233 -21.0567 39.9165
RightForeArm  101.384 78.7967 110.473
RightHand  -0.215832 7.94988 -2.24855
LeftUpLeg  3.89442 2.17091 2.29412
LeftLeg  -4.51538 39.7124 -3.00292
LeftFoot  -0.150706 0.321236 -3.26907
LeftToes  4.78049e-008 1.46235e-008 1.34219e-009
257
root  -3.15211 40.9532 0.726343 178.935 -68.2684 -176.61
RightUpLeg  -3.04758 1.5346 -0.104988
RightLeg  -2.78236 -1.43407 -0.203035
RightFoot  4.63711 -0.481076 3.65223
RightToes  -3.1126e-008 1.75238e-005 3.56266e-009
Spine  9.91824 -7.2524 -10.3586
Spine1  -12.8373 -8.55684 13.7282
HEad  -2.06845 -15.167 -1.04568
LeftShoulder1  0.76792 0.225743 -16.7052
LeftArm  -29.213 -39.4232 -47.5479
LeftForeArm  52.5318 -74.8751 -37.9224
LeftHand  -0.551664 -4.4641 6.78266
RightShoulder  0.618316 -0.887295 17.1488
RightArm  -14.3179 -20.9069 40.3046
RightForeArm  103.166 78.6406 112.44
RightHand  -0.195654 7.83456 -2.0841
LeftUpLeg  3.55159 2.13762 2.43857
LeftLeg  -4.37783 37.917 -2.87255
LeftFoot  -0.0830485 0.341784 -3.46857
LeftToes  4.78049e-008 1.46235e-008 1.34219e-009
258
root  -3.09083 40.9536 0.673581 179.035 -69.5162 -176.743
RightUpLeg  -3.03074 1.47343 -0.156318
RightLeg  -2.61758 -2.56979 -0.182961
RightFoot  4.48333 -0.460916 3.53563
RightToes  -3.1126e-008 1.75238e-005 3.56266e-009
Spine  9.59607 -6.52616 -9.03822
Spine1  -12.6839 -7.65947 11.9954
HEad  -1.41338 -14.9508 -0.876884
LeftShoulder1  0.683157 0.546601 -16.3465
LeftArm  -30.3879 -39.2747 -47.1705
LeftForeArm  52.9423 -75.0591 -38.55
LeftHand  -0.583414 -4.68508 7.0118
RightShoulder  0.703118 -0.589515 17.6751
RightArm  -14.1819 -20.2462 40.6824
RightForeArm  104.307 78.6669 112.667
RightHand  -0.0840881 7.97874 -1.10454
LeftUpLeg  3.30308 2.11905 2.51038
LeftLeg  -4.19885 36.7101 -2.74731
LeftFoot  -0.0529081 0.342467 -3.46815
LeftToes  4.78049e-008 1.46235e-008 1.34219e-009
259
root  -3.03097 40.9604 0.618297 178.788 -70.3987 -176.578
RightUpLeg  -2.67876 1.26999 -0.146621
RightLeg  -3.0506 -3.3078 0.0696348
RightFoot  4.57696 -0.438911 3.36217
RightToes  -3.1126e-008 1.75238e-005 3.56266e-009
Spine  9.29268 -5.65611 -7.49792
Spine1  -12.495 -6.61744 10.1997
HEad  -0.985283 -14.7048 -0.562068
LeftShoulder1  0.587468 0.943147 -16.1657
LeftArm  -31.3694 -39.1397 -47.173
LeftForeArm  53.5404 -75.1909 -38.9236
LeftHand  -0.611937 -4.77298 7.28274
RightShoulder  0.781885 -0.286675 17.8568
RightArm  -13.6931 -19.8466 41.2184
RightForeArm  105.835 78.6469 113.392
RightHand  -0.20066 8.14825 -2.08879
LeftUpLeg  3.05484 2.2658 2.75763
LeftLeg  -3.71509 35.5669 -2.53204
LeftFoot  -0.0929198 0.334709 -3.38732
LeftToes  4.78049e-008 1.46235e-008 1.34219e-009
